<svg xmlns="http://www.w3.org/2000/svg" xmlns:xlink="http://www.w3.org/1999/xlink" width="37.834" height="40.657" viewBox="0 0 37.834 40.657">
  <defs>
    <clipPath id="clip-path">
      <rect id="Rectangle_4506" data-name="Rectangle 4506" width="37.834" height="40.657" fill="none"/>
    </clipPath>
  </defs>
  <g id="Curbside_Pickup_Icon" data-name="Curbside Pickup Icon" transform="translate(0 0)">
    <g id="Group_5776" data-name="Group 5776" transform="translate(0 0)" clip-path="url(#clip-path)">
      <path id="Path_3931" data-name="Path 3931" d="M27.5.5H3.123L8.993,34.56H33.374ZM25.937,19.064a8.437,8.437,0,0,1-5.7,5.427,7.455,7.455,0,0,1-9.028-6.662,7.111,7.111,0,0,1,.7-3.348A4.1,4.1,0,0,1,12.4,12.9a5.9,5.9,0,0,1,3.325-2.229C18,9.841,20.957,9.706,23,11.206a2.229,2.229,0,0,1,.838,2.765c.006,0,.006.017-.008.071-.028.12-.073.235-.1.355-.019.079-.032.16-.049.237a5.558,5.558,0,0,0-.015.729c.006.143.028.288.034.43,0-.092-.006-.122-.009-.179-.023-.169-.017-.314,0,0,0,.028.006.056.011.081.024.12.055.241.09.359.013.038.026.075.038.113a1.157,1.157,0,0,0,.06.118l.015.024.038.024a2.173,2.173,0,0,1,2,2.729" transform="translate(2.747 0.438)" fill="#fad0dc"/>
      <path id="Path_3932" data-name="Path 3932" d="M33.813,35.939H9.433a.941.941,0,0,1-.927-.78L2.636,1.1A.939.939,0,0,1,3.563,0H27.944a.941.941,0,0,1,.927.78l5.868,34.06a.939.939,0,0,1-.927,1.1M10.225,34.06H32.7L27.153,1.88H4.68Z" transform="translate(2.307 -0.001)"/>
      <path id="Path_3933" data-name="Path 3933" d="M10.2,40.537a.942.942,0,0,1-.925-.78L2.637,1.237A.94.94,0,0,1,3.4.15.952.952,0,0,1,4.49.917l6.643,38.52a.938.938,0,0,1-.929,1.1" transform="translate(2.307 0.12)"/>
      <path id="Path_3934" data-name="Path 3934" d="M.942,40.536a.808.808,0,0,1-.117-.008.938.938,0,0,1-.818-1.047L4.722.962A.949.949,0,0,1,5.767.144a.936.936,0,0,1,.82,1.045L1.872,39.711a.939.939,0,0,1-.93.825" transform="translate(0 0.12)"/>
      <path id="Path_3935" data-name="Path 3935" d="M23.175,40.537a.942.942,0,0,1-.925-.78L15.608,1.237A.94.94,0,0,1,16.374.15a.951.951,0,0,1,1.086.767L24.1,39.437a.938.938,0,0,1-.929,1.1" transform="translate(13.717 0.12)"/>
      <path id="Path_3936" data-name="Path 3936" d="M23.276,12.468a2.744,2.744,0,0,1-1.838-2.6,2.728,2.728,0,0,1,.066-.617,2.858,2.858,0,0,1,.182-.536,1,1,0,0,0-.162-1.188A8.591,8.591,0,1,0,20.4,20.478l.508-.4a8.574,8.574,0,0,0,3.045-6.594,1.02,1.02,0,0,0-.68-1.019M19.6,8.5c-.028.1-.056.2-.079.3a4.757,4.757,0,0,0,2.38,5.257A6.565,6.565,0,1,1,19.6,8.5" transform="translate(5.959 4.337)"/>
      <path id="Path_3937" data-name="Path 3937" d="M12.363,7.822a1.018,1.018,0,0,0-1.429-.167l0,0a1.016,1.016,0,0,0-.167,1.427l.545.69a1.024,1.024,0,0,0,.679.38h.122a1.018,1.018,0,0,0,.63-.212v0a1.017,1.017,0,0,0,.167-1.429Z" transform="translate(9.278 6.54)"/>
      <path id="Path_3938" data-name="Path 3938" d="M11.473,10.19l-.746-.461L10.672,9.7a1.021,1.021,0,0,0-1.015,1.773l.748.461a1.02,1.02,0,0,0,1.068-1.739" transform="translate(8.044 8.409)"/>
      <path id="Path_3939" data-name="Path 3939" d="M14.141,9.926a1.018,1.018,0,0,0-1.417.218l-.521.709a1.018,1.018,0,0,0,.821,1.62,1.013,1.013,0,0,0,.816-.421l.521-.709a1.02,1.02,0,0,0-.22-1.417" transform="translate(10.561 8.56)"/>
      <path id="Path_3940" data-name="Path 3940" d="M6.352,20.137H1.23a.94.94,0,1,1,0-1.88H6.352a.94.94,0,0,1,0,1.88" transform="translate(0.255 16.059)"/>
    </g>
  </g>
</svg>
