<svg xmlns="http://www.w3.org/2000/svg" width="60.751" height="34.217" viewBox="0 0 60.751 34.217"><defs><style>.a{fill:#fad0dc;}.b{fill-rule:evenodd;}</style></defs><path class="a" d="M728.082,278.652a10.7,10.7,0,0,0-3.371-2.266c-2.821-1.221-5.881-1.734-8.734-2.869-.071-.028-.137-.065-.2-.1a16.333,16.333,0,0,1-3.592.513,17.76,17.76,0,0,1-4.969-.107,4.4,4.4,0,0,1-3.337-4.017,11.866,11.866,0,0,1,.11-3.167c.058-.414.122-.825.188-1.235.027-.163.053-.326.08-.491l.012-.074.007-.068c.01-.089.03-.175.047-.263h-28.39v26.923h5.3a5.448,5.448,0,0,1,1.018-2.508,6.128,6.128,0,0,1,2.115-1.989,5.2,5.2,0,0,1,1.445-.5,5.549,5.549,0,0,1,1.986.012,4.911,4.911,0,0,1,2.425,1.295,5.006,5.006,0,0,1,1.375,2.294,4.13,4.13,0,0,1,.153,1.341l-.007.059h20.829a5.566,5.566,0,0,1,.08-.86,3.438,3.438,0,0,1,.254-.753,3.7,3.7,0,0,1,.359-.7,6.141,6.141,0,0,1,1.473-1.5,4.249,4.249,0,0,1,1.47-.656,4.861,4.861,0,0,1,1.431-.171,5.064,5.064,0,0,1,4.282,2.892,7.988,7.988,0,0,1,.6,1.743h5.139c.012-.024.016-.043.028-.067.056-.108.133-.2.193-.309.019-.04.028-.082.049-.119l.344-.445a2.207,2.207,0,0,1,.415-.32V279.388C728.471,279.151,728.272,278.9,728.082,278.652ZM693.5,280.024a7.594,7.594,0,0,1-4.936.753,5.763,5.763,0,0,1-3.383-1.626c-1.759-1.927-1.5-4.533-.484-6.743.756-1.64,2.287-3.487,4.155-3.846a3.5,3.5,0,0,1,2.9.716c.037,0,.074,0,.114.006a2.319,2.319,0,0,1,1.311.642,1.754,1.754,0,0,1,.159.184,2.249,2.249,0,0,1,.684,1.592l.314.366a7.735,7.735,0,0,1,1.572,2.461A4.781,4.781,0,0,1,693.5,280.024Z" transform="translate(-669.265 -263.136)"/><path class="b" d="M731,278.36a6.2,6.2,0,0,0-3.15-2.244l-8.1-2.564-4.976-7.263a6.077,6.077,0,0,0-5.125-2.7H680.92a3.591,3.591,0,0,0-3.591,3.589v.6h-4.935a.959.959,0,0,0,0,1.918h5.89a.958.958,0,0,0,.958-.958v-1.562a1.681,1.681,0,0,1,1.676-1.677H705.56v6.24a3.591,3.591,0,0,0,3.591,3.591h9.872l8.269,2.619a4.228,4.228,0,0,1,3,4.1v4.405h-3.831a.954.954,0,1,0,0,1.907H730.3v.718a1.68,1.68,0,0,1-1.676,1.678H725.5a5.9,5.9,0,0,0-11.585,0H694.547a5.9,5.9,0,0,0-11.585,0h-2.045a1.683,1.683,0,0,1-1.676-1.675v-.718H682a.954.954,0,1,0,0-1.909h-2.763v-5.19a.958.958,0,0,0-.958-.958H676.32a.959.959,0,0,0,0,1.918h1.01v6.866a3.59,3.59,0,0,0,3.589,3.591h1.99a5.9,5.9,0,0,0,11.694,0h19.247a5.9,5.9,0,0,0,11.694,0H728.6a3.59,3.59,0,0,0,3.589-3.591v-7.038A6.193,6.193,0,0,0,731,278.36Zm-23.042-5.445a1.668,1.668,0,0,1-.491-1.182v-6.241h2.183a4.163,4.163,0,0,1,3.552,1.869l4.143,6.047h-8.2a1.677,1.677,0,0,1-1.185-.492ZM691.581,294.7a3.994,3.994,0,1,1,1.169-2.824A4,4,0,0,1,691.581,294.7Zm30.944,0a3.994,3.994,0,1,1,1.167-2.824,3.994,3.994,0,0,1-1.167,2.824Z" transform="translate(-671.436 -263.584)"/><g transform="translate(13.629 4.432)"><path class="b" d="M693.379,269.9a.934.934,0,0,0-.153-1.1,7.343,7.343,0,0,0-5.265-2.225h0a7.336,7.336,0,0,0,0,14.672h.025a7.313,7.313,0,0,0,4.73-1.746l.122-.107a7.339,7.339,0,0,0,2.469-5.482v-.053h0a.943.943,0,0,0-.636-.909,2.241,2.241,0,0,1-1.365-2.86c.022-.062.046-.123.074-.184Zm0,4.521a5.434,5.434,0,0,1-5.412,4.938h0a5.447,5.447,0,0,1,0-10.894h0a5.391,5.391,0,0,1,3.468,1.258c-.019.068-.037.135-.053.2a4.111,4.111,0,0,0,2,4.5Z" transform="translate(-680.625 -266.572)"/><path class="b" d="M686.813,270.186l-.46-.58a.95.95,0,0,0-1.492,1.178h0l.46.58a.95.95,0,0,0,1.491-1.178h0Z" transform="translate(-678.676 -265.281)"/><path class="b" d="M685.255,272.057l-.632-.387a.954.954,0,0,0-1,1.626h0l.63.389a.954.954,0,1,0,1-1.624h0Z" transform="translate(-679.395 -264.177)"/><path class="b" d="M688.17,271.885a.953.953,0,0,0-1.332.2l-.437.6a.952.952,0,1,0,1.535,1.126l.438-.6a.95.95,0,0,0-.2-1.33Z" transform="translate(-677.923 -264.094)"/></g><path class="b" d="M687.023,279.951a.955.955,0,0,0,.952.955h16.917a.954.954,0,1,0,0-1.909H687.977a.954.954,0,0,0-.954.954Z" transform="translate(-663.904 -256.136)"/><path class="b" d="M683.527,282.019h-.156a.954.954,0,0,0,0,1.907h.156a.954.954,0,1,0,0-1.907Z" transform="translate(-666.129 -254.676)"/><path class="b" d="M704.39,282.019h-.15a.954.954,0,1,0,0,1.907h.157a.954.954,0,0,0,0-1.907h-.007Z" transform="translate(-656.046 -254.676)"/><path class="b" d="M678.607,271.587a.958.958,0,0,0-.958-.958h-3.926a.959.959,0,1,0,0,1.918h3.926a.959.959,0,0,0,.958-.96Z" transform="translate(-670.795 -260.179)"/></svg>