<svg xmlns="http://www.w3.org/2000/svg" xmlns:xlink="http://www.w3.org/1999/xlink" width="41.247" height="28.83" viewBox="0 0 41.247 28.83">
  <defs>
    <clipPath id="clip-path">
      <rect id="Rectangle_4507" data-name="Rectangle 4507" width="41.247" height="28.83" fill="none"/>
    </clipPath>
  </defs>
  <g id="Gift_Card_Icon" data-name="Gift Card Icon" transform="translate(0 0)">
    <g id="Group_5778" data-name="Group 5778" transform="translate(0 0)" clip-path="url(#clip-path)">
      <path id="Path_3941" data-name="Path 3941" d="M40.677,23.63a4.636,4.636,0,0,1-4.631,4.63H6.71a4.636,4.636,0,0,1-4.632-4.63V6.71A4.637,4.637,0,0,1,6.71,2.079H36.046A4.636,4.636,0,0,1,40.677,6.71Z" transform="translate(-0.754 -0.755)" fill="#fad0dc"/>
      <path id="Path_3942" data-name="Path 3942" d="M14.016,11.4l0-.068a1.635,1.635,0,0,0-.294-.93,1.659,1.659,0,0,0-.819-.615.686.686,0,0,1-.18-.1.753.753,0,0,1-.15-.152.653.653,0,0,1-.089-.182.692.692,0,0,1-.031-.21l0-.089.011-.069.02-.067s.013-.033.014-.036a1.634,1.634,0,0,0-.288-1.894,6.292,6.292,0,0,0-2.094-1.419A6.425,6.425,0,0,0,8.4,5.119a6.346,6.346,0,0,0-1.235-.025c-.155-.129-.319-.252-.489-.37a6.406,6.406,0,0,0-3.63-1.131,6.349,6.349,0,0,0-.958.082,1.423,1.423,0,0,1-.172.712A11.543,11.543,0,0,0,.982,9.609c-.032,2.078.017,4.162.049,6.24a68.017,68.017,0,0,1-.162,7.333c-.015.16-.034.327-.055.494a35.247,35.247,0,0,1,.58,3.545,7.1,7.1,0,0,0,6.673-1.709,1.577,1.577,0,0,0,.5-1.114,1.594,1.594,0,0,0-.057-.469H10.6a1.676,1.676,0,0,0,1.15-.459l.021-.02a1.627,1.627,0,0,0,0-2.342,1.673,1.673,0,0,0-1.17-.48h-.373l-.01-3.434a6.315,6.315,0,0,0,.685-.352,6.456,6.456,0,0,0,1.126-.847l.05-.048q.195-.187.379-.4t.358-.45a6.3,6.3,0,0,0,1.2-3.693Z" transform="translate(-0.295 -1.304)" fill="#fff"/>
      <path id="Path_3943" data-name="Path 3943" d="M11.063,12.7a.575.575,0,0,0-.9.713l.332.42a.575.575,0,0,0,.9-.714Z" transform="translate(-3.643 -4.53)" fill="#040505"/>
      <path id="Path_3944" data-name="Path 3944" d="M8.873,16.692l-.456-.28a.577.577,0,1,0-.6.982l.455.28a.577.577,0,1,0,.6-.982" transform="translate(-2.736 -5.925)" fill="#040505"/>
      <path id="Path_3945" data-name="Path 3945" d="M13.892,16.729a.577.577,0,0,0-.8.124l-.317.431a.576.576,0,1,0,.93.68l.317-.431a.576.576,0,0,0-.124-.8" transform="translate(-4.594 -6.031)" fill="#040505"/>
      <path id="Path_3946" data-name="Path 3946" d="M12.791,12.3a.571.571,0,0,0-.384-.553A1.734,1.734,0,0,1,11.3,9.739a1.749,1.749,0,0,1,.115-.338.569.569,0,0,0-.09-.668A5.2,5.2,0,0,0,9.8,7.657a.5.5,0,0,0-.05-.03c-.027-.012-.056-.023-.083-.036l-.048-.024L9.53,7.532,9.461,7.5c-.057-.022-.115-.043-.172-.063L9.2,7.411l-.091-.029-.013-.005L9.031,7.36l-.09-.025c-.052-.014-.1-.026-.157-.038l-.072-.017-.01,0-.024-.006a.348.348,0,0,0-.155-.036.384.384,0,0,1-.1-.01c-.078-.013-.156-.023-.234-.032l-.036-.005c-.05-.005-.1-.009-.152-.012l-.04,0c-.013,0-.026,0-.041,0s-.029,0-.043,0c-.092-.005-.184-.008-.277-.008a5.175,5.175,0,0,0-.83.069A5.145,5.145,0,0,0,1.62,5.922,8.194,8.194,0,0,0,1.257,7.3c.069-.036.136-.075.207-.106A4.065,4.065,0,0,1,4.77,7.2a4.128,4.128,0,0,1,.708.415,5.345,5.345,0,0,0-.58.305,5.135,5.135,0,0,0-2.2,2.721,5.108,5.108,0,0,0-.19.693.571.571,0,0,0,.453.67h0a.577.577,0,0,0,.677-.45,4.149,4.149,0,0,1,.144-.541A4.035,4.035,0,0,1,7.6,8.3c.134,0,.266.009.4.022l.062.006c.034,0,.067.011.1.015.094.013.189.025.28.045.04.009.078.02.117.03.1.023.192.048.284.078.055.017.108.039.162.059.075.027.148.054.22.086a4.026,4.026,0,0,1,1.009.634c-.021.069-.04.139-.055.21a2.866,2.866,0,0,0,1.453,3.166,3.994,3.994,0,0,1-.15.829h0l0,.01c-.024.083-.051.164-.08.243l-.009.027c-.029.075-.058.148-.09.221l-.018.04c-.03.068-.064.134-.1.2l-.028.053c-.032.061-.067.121-.1.18l-.039.062c-.018.029-.036.058-.057.086-.052.075-.1.149-.161.22-.025.034-.052.068-.078.1-.069.084-.142.164-.217.243l-.036.036-.021.02c-.074.072-.151.143-.23.212l-.108.087c-.059.046-.119.092-.18.135l-.085.057-.048.032c-.062.04-.127.078-.191.115l-.019.011c-.03.017-.059.036-.09.052-.1.052-.2.1-.3.144-.034.015-.069.027-.1.041-.08.032-.16.061-.242.087l-.108.034c-.113.033-.229.063-.347.087a.572.572,0,0,0-.466.545V18.7a18.545,18.545,0,0,0-1.885-.352,21.367,21.367,0,0,0-2.81-.185c-.712,0-1.423.047-2.132.118,0,.378,0,.757,0,1.135A18.221,18.221,0,0,1,3.22,19.3c.584,0,1.123.024,1.614.063a.746.746,0,1,0,.988.1,16.36,16.36,0,0,1,2.094.4v2.622h-2.8a.661.661,0,0,0-.08.008h0a.6.6,0,0,0-.105.025h0a.569.569,0,0,0-.1.043l-.006,0a.635.635,0,0,0-.087.062l-.005,0a.587.587,0,0,0-.083.09,1.818,1.818,0,0,1-.628.518A1.791,1.791,0,0,1,1.8,22.73a.579.579,0,0,0-.085-.092l-.006,0a.474.474,0,0,0-.085-.061l-.007,0a.556.556,0,0,0-.095-.043h0a.573.573,0,0,0-.1-.025h0a.571.571,0,0,0-.08-.008H1.012c-.021.381-.047.761-.079,1.142h.138a2.939,2.939,0,0,0,3.462.631,2.977,2.977,0,0,0,.844-.629H10.5a.572.572,0,1,0,0-1.144H9.074V17.32c.036-.01.068-.021.1-.032l.05-.016.018,0,.024-.01c.094-.031.185-.066.276-.1l.069-.027.027-.011c.14-.06.276-.126.409-.2l.045-.025c.084-.047.168-.094.249-.145.022-.013.042-.028.064-.042l.047-.031.045-.026c.015-.01.023-.018.036-.027.043-.029.087-.059.13-.09s.072-.055.108-.082c.066-.051.132-.1.2-.156.038-.033.076-.068.113-.1s.078-.068.115-.1l.029-.03.017-.018c.061-.06.119-.123.178-.185l.078-.087c.039-.045.079-.089.117-.135.02-.025.04-.052.06-.076s.041-.052.061-.079.057-.069.083-.105.046-.07.07-.105c.01-.017.022-.032.034-.049s.015-.02.022-.031a.148.148,0,0,0,.014-.026c.045-.068.088-.138.129-.208q.028-.048.054-.1c.043-.078.085-.155.124-.235.014-.029.027-.059.041-.089.04-.085.079-.17.114-.257.008-.019.014-.038.021-.057a5.15,5.15,0,0,0,.355-1.876Z" transform="translate(-0.339 -2.069)" fill="#040505"/>
      <path id="Path_3947" data-name="Path 3947" d="M7.336,35.523l0-.005a.582.582,0,0,0-.816-.02,4.708,4.708,0,0,1-4.952.951,4.709,4.709,0,0,1-.435-.2c.086.447.168.893.237,1.339a5.834,5.834,0,0,0,5.945-1.262.566.566,0,0,0,.025-.8" transform="translate(-0.41 -12.825)" fill="#040505"/>
      <path id="Path_3948" data-name="Path 3948" d="M35.292,0H5.956A5.961,5.961,0,0,0,0,5.956v16.92a5.961,5.961,0,0,0,5.956,5.956H35.292a5.96,5.96,0,0,0,5.955-5.956V5.956A5.96,5.96,0,0,0,35.292,0m4.631,22.875a4.636,4.636,0,0,1-4.631,4.63H5.956a4.636,4.636,0,0,1-4.632-4.63V5.956A4.637,4.637,0,0,1,5.956,1.325H35.292a4.636,4.636,0,0,1,4.631,4.631Z" transform="translate(0 0)"/>
      <path id="Path_3949" data-name="Path 3949" d="M51.24,36.844H42.826a.765.765,0,0,1,0-1.523H51.24a.765.765,0,0,1,0,1.523" transform="translate(-15.288 -12.818)"/>
    </g>
  </g>
</svg>
