<?xml version="1.0" standalone="no"?>
<!DOCTYPE svg PUBLIC "-//W3C//DTD SVG 20010904//EN"
 "http://www.w3.org/TR/2001/REC-SVG-20010904/DTD/svg10.dtd">
<svg version="1.0" xmlns="http://www.w3.org/2000/svg"
 width="83.000000pt" height="83.000000pt" viewBox="0 0 83.000000 83.000000"
 preserveAspectRatio="xMidYMid meet">
<metadata>
Created by potrace 1.14, written by Peter Selinger 2001-2017
</metadata>
<g transform="translate(0.000000,83.000000) scale(0.100000,-0.100000)"
fill="#000000" stroke="none">
<path d="M355 810 c-3 -5 -12 -7 -20 -4 -8 3 -20 2 -27 -2 -7 -4 -21 -9 -32
-10 -11 0 -22 -6 -24 -12 -2 -6 -10 -8 -18 -5 -7 3 -17 -2 -20 -11 -3 -9 -10
-14 -14 -11 -4 2 -18 -4 -30 -15 -13 -11 -27 -20 -32 -20 -4 0 -8 -7 -8 -15 0
-8 -7 -15 -15 -15 -9 0 -19 -8 -22 -17 -4 -10 -13 -23 -21 -29 -8 -6 -12 -16
-9 -21 4 -6 0 -13 -8 -17 -8 -3 -15 -14 -15 -25 0 -11 -5 -23 -11 -27 -6 -3
-9 -15 -6 -25 3 -11 1 -19 -5 -19 -6 0 -8 -11 -6 -25 3 -14 2 -25 -2 -25 -9 0
-7 -76 2 -86 4 -3 4 -12 1 -20 -3 -8 0 -21 7 -29 6 -8 9 -19 6 -24 -7 -10 8
-42 33 -73 8 -10 10 -18 6 -18 -5 0 1 -9 13 -20 12 -12 22 -25 22 -30 0 -6 6
-10 14 -10 7 0 16 -9 19 -20 3 -11 12 -20 20 -20 8 0 17 -7 21 -15 3 -8 15
-15 26 -15 11 0 20 -4 20 -10 0 -5 8 -10 18 -10 10 0 23 -5 29 -11 6 -6 29
-12 52 -12 22 -1 41 -5 41 -9 0 -5 77 -4 90 2 3 1 15 1 28 0 12 -1 22 3 22 8
0 6 9 8 20 5 12 -3 22 1 26 11 3 9 10 14 14 11 13 -8 41 6 34 17 -3 5 1 8 9 6
17 -4 107 70 107 88 0 6 7 14 15 18 8 3 15 12 15 19 0 8 6 20 14 27 8 6 12 18
9 26 -3 8 0 14 6 14 6 0 11 11 11 24 0 14 4 27 8 30 12 7 8 179 -5 183 -6 2
-9 12 -6 22 3 10 0 22 -6 25 -6 4 -11 16 -11 27 0 11 -7 19 -16 19 -8 0 -12 5
-9 10 8 13 -14 42 -26 34 -5 -3 -6 2 -3 11 5 11 0 18 -15 22 -12 3 -21 13 -21
24 0 12 -7 19 -19 19 -10 0 -22 7 -25 16 -3 9 -13 14 -20 11 -8 -3 -17 1 -20
9 -3 8 -15 14 -26 14 -11 0 -20 5 -20 11 0 7 -10 9 -25 7 -14 -3 -25 -1 -25 4
0 5 -8 8 -17 7 -10 -1 -26 1 -36 6 -10 4 -23 2 -32 -5 -10 -9 -15 -9 -15 -1 0
13 -27 15 -35 1z m56 -52 c0 -9 2 -9 5 -2 3 8 19 9 49 3 60 -11 118 -37 110
-49 -3 -6 0 -7 9 -4 27 10 146 -125 146 -165 0 -6 -17 -11 -40 -11 -36 0 -47
6 -98 58 -40 41 -70 62 -102 71 -113 34 -233 -9 -296 -105 -14 -20 -24 -24
-65 -24 -27 0 -49 2 -49 5 0 4 7 20 16 38 48 93 135 160 238 182 78 17 76 17
77 3z m-214 -478 c93 -147 324 -150 420 -4 18 26 27 31 67 31 55 1 57 -6 18
-68 -38 -58 -93 -106 -162 -138 -109 -51 -261 -28 -358 54 -36 30 -86 98 -96
131 -6 19 -2 20 43 21 45 1 52 -2 68 -27z"/>
</g>
</svg>
