<svg xmlns="http://www.w3.org/2000/svg" width="49.953" height="53.44" viewBox="0 0 49.953 53.44"><defs><style>.a{fill:#fad0dc;}</style></defs><g transform="translate(2.106 30.646)"><rect class="a" width="12.142" height="5.231" transform="translate(4.846 9.406) rotate(45)"/><path d="M711.17,257.47a2.358,2.358,0,0,1-1.679-.695l-7.48-7.478a2.377,2.377,0,0,1,0-3.358l2.667-2.667a2.38,2.38,0,0,1,3.358,0l7.478,7.48a2.374,2.374,0,0,1,0,3.356l-2.665,2.667A2.361,2.361,0,0,1,711.17,257.47Zm-4.813-12.677a.155.155,0,0,0-.111.047l-2.667,2.667a.153.153,0,0,0,0,.222l7.48,7.478h0a.156.156,0,0,0,.222,0l2.665-2.667a.156.156,0,0,0,0-.222l-7.478-7.478A.158.158,0,0,0,706.357,244.793Z" transform="translate(-701.317 -234.675)"/><g transform="translate(7.345)"><path d="M713.781,253.71h0a1.106,1.106,0,0,1-.784-.324l-7.328-7.328a1.113,1.113,0,0,1,0-1.568l2.813-2.811c1.9-1.956,6.9-4.973,12.345-2.508h10.024a2.854,2.854,0,0,1,2.62,3.989l4.823-3.637a3.234,3.234,0,0,1,4.5.058l0,0a3.236,3.236,0,0,1,0,4.565l-8.511,6.789a3.906,3.906,0,0,1-2.767,1.1H715.912l-1.349,1.349A1.1,1.1,0,0,1,713.781,253.71Zm-5.761-8.437,5.761,5.762.888-.89a1.109,1.109,0,0,1,.784-.324H731.52a1.837,1.837,0,0,0,1.294-.536l8.51-6.787a1.014,1.014,0,0,0-.093-1.351h0a1.1,1.1,0,0,0-1.62-.264,1.261,1.261,0,0,1-.119.1l-6.71,4.964a4.077,4.077,0,0,1-2.8,1.127h-7.294a1.429,1.429,0,0,1-1.3-1.61h0a1.455,1.455,0,0,1,1.256-1.333h6.2c2.6,0,2.649-1.756,2.649-2.109a.639.639,0,0,0-.64-.638H720.581a1.1,1.1,0,0,1-.479-.111c-5.462-2.623-9.859,1.772-10.043,1.96Z" transform="translate(-705.346 -238.244)"/></g></g><path d="M748.987,238.477h-47.7a1.128,1.128,0,0,1,0-2.255h47.7a1.128,1.128,0,1,1,0,2.255Z" transform="translate(-700.162 -209.262)"/><g transform="translate(2.889 5.07)"><path class="a" d="M744.312,243.551a21.114,21.114,0,0,0-41.957,0Z" transform="translate(-701.247 -223.714)"/><path d="M744.813,245.16H702.855a1.11,1.11,0,0,1-1.1-1.234,22.222,22.222,0,0,1,44.16,0,1.109,1.109,0,0,1-1.1,1.234Zm-40.679-2.217h39.4a20.008,20.008,0,0,0-39.4,0Z" transform="translate(-701.747 -224.214)"/></g><path d="M715.333,227.943a3.255,3.255,0,1,1,3.256-3.256A3.259,3.259,0,0,1,715.333,227.943Zm0-4.295a1.04,1.04,0,1,0,1.041,1.039A1.04,1.04,0,0,0,715.333,223.648Z" transform="translate(-690.356 -221.433)"/></svg>